<svg width="38" height="38" viewBox="0 0 38 38" fill="none" xmlns="http://www.w3.org/2000/svg">
<path d="M22.0834 3.29762V9.46429C22.0834 10.282 22.4082 11.0663 22.9864 11.6445C23.5647 12.2228 24.3489 12.5476 25.1667 12.5476H31.3334M15.9167 14.0893H12.8334M25.1667 20.256H12.8334M25.1667 26.4226H12.8334M23.625 3.29762H9.75002C8.93227 3.29762 8.14801 3.62247 7.56977 4.20071C6.99154 4.77895 6.66669 5.56321 6.66669 6.38096V31.0476C6.66669 31.8654 6.99154 32.6496 7.56977 33.2279C8.14801 33.8061 8.93227 34.131 9.75002 34.131H28.25C29.0678 34.131 29.852 33.8061 30.4303 33.2279C31.0085 32.6496 31.3334 31.8654 31.3334 31.0476V11.006L23.625 3.29762Z" stroke="white" stroke-width="3" stroke-linecap="round" stroke-linejoin="round"/>
</svg>
