<svg width="36" height="36" viewBox="0 0 36 36" fill="none" xmlns="http://www.w3.org/2000/svg">
<path d="M15.0833 32.2975V22.7163M18 16.256H18.0146M18 10.4226H18.0146M20.9166 22.7163V32.2975M22.375 23.5476C21.1128 22.601 19.5777 22.0893 18 22.0893C16.4223 22.0893 14.8871 22.601 13.625 23.5476M23.8333 16.256H23.8479M23.8333 10.4226H23.8479M12.1666 16.256H12.1812M12.1666 10.4226H12.1812M9.24998 3.13097H26.75C28.3608 3.13097 29.6666 4.4368 29.6666 6.04763V29.381C29.6666 30.9918 28.3608 32.2976 26.75 32.2976H9.24998C7.63915 32.2976 6.33331 30.9918 6.33331 29.381V6.04763C6.33331 4.4368 7.63915 3.13097 9.24998 3.13097Z" stroke="#155DFC" stroke-width="3" stroke-linecap="round" stroke-linejoin="round"/>
</svg>
