<svg width="30" height="32" viewBox="0 0 30 32" fill="none" xmlns="http://www.w3.org/2000/svg">
<path d="M19.375 29.625V17.9583C19.375 17.5716 19.2214 17.2006 18.9479 16.9271C18.6744 16.6536 18.3034 16.5 17.9167 16.5H12.0833C11.6966 16.5 11.3256 16.6536 11.0521 16.9271C10.7786 17.2006 10.625 17.5716 10.625 17.9583V29.625M1.875 13.5833C1.8749 13.159 1.96736 12.7398 2.14594 12.355C2.32452 11.9701 2.58491 11.6288 2.90896 11.355L13.1173 2.60641C13.6437 2.16149 14.3107 1.91738 15 1.91738C15.6893 1.91738 16.3563 2.16149 16.8827 2.60641L27.091 11.355C27.4151 11.6288 27.6755 11.9701 27.8541 12.355C28.0326 12.7398 28.1251 13.159 28.125 13.5833V26.7083C28.125 27.4818 27.8177 28.2237 27.2707 28.7707C26.7237 29.3177 25.9819 29.625 25.2083 29.625H4.79167C4.01812 29.625 3.27625 29.3177 2.72927 28.7707C2.18229 28.2237 1.875 27.4818 1.875 26.7083V13.5833Z" stroke="#155DFC" stroke-width="3" stroke-linecap="round" stroke-linejoin="round"/>
</svg>
