<svg width="55" height="55" viewBox="0 0 55 55" fill="none" xmlns="http://www.w3.org/2000/svg">
<path d="M0 10C0 4.47715 4.47715 0 10 0H45C50.5228 0 55 4.47715 55 10V45C55 50.5228 50.5228 55 45 55H10C4.47715 55 0 50.5228 0 45V10Z" fill="url(#paint0_linear_138_152)"/>
<path d="M27.5 36.6304L13.1818 10H17.9545L27.5 26.7391L37.0454 10H41.8182L27.5 36.6304Z" fill="white"/>
<path d="M10 40.9425V45H45V40.9418C45 40.9418 45 38.5092 42.0833 40.1303C39.1667 41.7513 39.1667 38.5073 36.25 40.1303C33.3334 41.7533 33.3333 41.7533 30.4167 40.1303C28.9625 39.3212 28.2333 38.9154 27.5062 38.9131C26.775 38.9108 26.0458 39.3165 24.5833 40.1303C21.6667 41.7533 21.6667 41.7533 18.75 40.1303C15.8333 38.5072 15.8333 41.7533 12.9167 40.1303C10 38.5072 10 40.9425 10 40.9425Z" fill="#BACEFB"/>
<defs>
<linearGradient id="paint0_linear_138_152" x1="27.5" y1="0" x2="27.5" y2="55" gradientUnits="userSpaceOnUse">
<stop stop-color="#206CFA"/>
<stop offset="0.759615" stop-color="#1956C7"/>
<stop offset="1" stop-color="#134094"/>
</linearGradient>
</defs>
</svg>
