<svg width="15" height="16" viewBox="0 0 15 16" fill="none" xmlns="http://www.w3.org/2000/svg">
<g clip-path="url(#clip0_86_677)">
<path d="M12.5 6.96429C12.5 10.0849 9.03812 13.3349 7.87562 14.3387C7.76733 14.4201 7.6355 14.4641 7.5 14.4641C7.3645 14.4641 7.23267 14.4201 7.12438 14.3387C5.96188 13.3349 2.5 10.0849 2.5 6.96429C2.5 5.63821 3.02678 4.36644 3.96447 3.42876C4.90215 2.49108 6.17392 1.96429 7.5 1.96429C8.82608 1.96429 10.0979 2.49108 11.0355 3.42876C11.9732 4.36644 12.5 5.63821 12.5 6.96429Z" stroke="#6C6C6C" stroke-width="2" stroke-linecap="round" stroke-linejoin="round"/>
<path d="M7.5 8.83929C8.53553 8.83929 9.375 7.99983 9.375 6.96429C9.375 5.92876 8.53553 5.08929 7.5 5.08929C6.46447 5.08929 5.625 5.92876 5.625 6.96429C5.625 7.99983 6.46447 8.83929 7.5 8.83929Z" stroke="#6C6C6C" stroke-width="2" stroke-linecap="round" stroke-linejoin="round"/>
</g>
<defs>
<clipPath id="clip0_86_677">
<rect width="15" height="15" fill="white" transform="translate(0 0.714294)"/>
</clipPath>
</defs>
</svg>
