<svg width="38" height="38" viewBox="0 0 38 38" fill="none" xmlns="http://www.w3.org/2000/svg">
<path d="M19 14.0893V20.256M19 26.4226H19.0154M34.0003 27.9643L21.667 6.38093C21.3981 5.90641 21.0081 5.51172 20.5368 5.23712C20.0656 4.96252 19.5299 4.81784 18.9845 4.81784C18.4391 4.81784 17.9034 4.96252 17.4321 5.23712C16.9609 5.51172 16.5709 5.90641 16.302 6.38093L3.96864 27.9643C3.69682 28.435 3.55428 28.9693 3.55549 29.5129C3.55669 30.0565 3.70159 30.5901 3.9755 31.0597C4.2494 31.5292 4.64258 31.918 5.11517 32.1866C5.58777 32.4553 6.12298 32.5942 6.66656 32.5893H31.3332C31.8742 32.5887 32.4055 32.4458 32.8738 32.175C33.3421 31.9041 33.7309 31.5149 34.0011 31.0462C34.2713 30.5776 34.4135 30.0461 34.4134 29.5051C34.4133 28.9642 34.2708 28.4328 34.0003 27.9643Z" stroke="white" stroke-width="3" stroke-linecap="round" stroke-linejoin="round"/>
</svg>
