<svg width="36" height="36" viewBox="0 0 36 36" fill="none" xmlns="http://www.w3.org/2000/svg">
<path d="M28.2084 25.006H31.125C32 25.006 32.5834 24.4226 32.5834 23.5476V19.1726C32.5834 17.8601 31.5625 16.6935 30.3959 16.4018C27.7709 15.6726 23.8334 14.7976 23.8334 14.7976C23.8334 14.7976 21.9375 12.756 20.625 11.4435C19.8959 10.8601 19.0209 10.4226 18 10.4226H7.79169C6.91669 10.4226 6.18752 11.006 5.75002 11.7351L3.70835 15.9643C3.51524 16.5275 3.41669 17.1189 3.41669 17.7143V23.5476C3.41669 24.4226 4.00002 25.006 4.87502 25.006H7.79169M28.2084 25.006C28.2084 26.6168 26.9025 27.9226 25.2917 27.9226C23.6809 27.9226 22.375 26.6168 22.375 25.006M28.2084 25.006C28.2084 23.3951 26.9025 22.0893 25.2917 22.0893C23.6809 22.0893 22.375 23.3951 22.375 25.006M7.79169 25.006C7.79169 26.6168 9.09752 27.9226 10.7084 27.9226C12.3192 27.9226 13.625 26.6168 13.625 25.006M7.79169 25.006C7.79169 23.3951 9.09752 22.0893 10.7084 22.0893C12.3192 22.0893 13.625 23.3951 13.625 25.006M13.625 25.006H22.375" stroke="#155DFC" stroke-width="3" stroke-linecap="round" stroke-linejoin="round"/>
</svg>
